<svg xmlns="http://www.w3.org/2000/svg" viewBox="0 0 16 16"><path fill="#C5C5C5" d="M10 5a2 2 0 0 0-2-2 2 2 0 0 0-2 2c0 .74.4 1.39 1 1.73V8l-3 3v.27A2 2 0 0 0 3 13a2 2 0 0 0 2 2 2 2 0 0 0 2-2c0-.74-.4-1.39-1-1.73V11l2-2 2 2v.27A2 2 0 0 0 9 13a2 2 0 0 0 2 2 2 2 0 0 0 2-2 2 2 0 0 0-1-1.73V11L9 8V6.73c.6-.34 1-.99 1-1.73zM5 14a1 1 0 0 1-1-1 1 1 0 0 1 1-1 1 1 0 0 1 1 1 1 1 0 0 1-1 1zm3-8a1 1 0 0 1-1-1 1 1 0 0 1 1-1 1 1 0 0 1 1 1 1 1 0 0 1-1 1zm3 8a1 1 0 0 1-1-1 1 1 0 0 1 1-1 1 1 0 0 1 1 1 1 1 0 0 1-1 1z"/></svg>
